<?xml version="1.0" encoding="utf-8"?>
<!-- Generator: Adobe Illustrator 16.0.0, SVG Export Plug-In . SVG Version: 6.00 Build 0)  -->
<!DOCTYPE svg PUBLIC "-//W3C//DTD SVG 1.1//EN" "http://www.w3.org/Graphics/SVG/1.1/DTD/svg11.dtd">
<svg version="1.1" id="Layer_1" xmlns="http://www.w3.org/2000/svg" xmlns:xlink="http://www.w3.org/1999/xlink" x="0px" y="0px"
	 width="497px" height="576px" viewBox="0 0 497 576" enable-background="new 0 0 497 576" xml:space="preserve" style="filter:drop-shadow(rgb(255, 255, 255) 0px 0px 10px) drop-shadow(rgb(255, 255, 255) 0px 0px 20px) drop-shadow(rgba(195, 60, 60, 0.25) 0px 0px 30px) drop-shadow(rgba(195, 60, 60, 0.75) 0px 0px 30px) drop-shadow(rgb(165, 65, 156) 0px 0px 50px);">
<g>
	<path fill="#ffffff" d="M256.118,95.223c75.859-0.002,130.538,56.094,143.695,114.724c9.308,41.478,2.767,80.668-21.316,115.856
		c-7.069,10.329-9.521,20.445-9.43,32.338c0.218,28.154-0.117,56.313-0.22,84.471c-0.021,5.764-0.004,11.527-0.004,17.292
		c-0.463,0.074-0.926,0.149-1.39,0.224c-3.532-7.783-7.015-15.589-10.606-23.344c-8.807-19.02-17.777-37.965-26.422-57.059
		c-1.34-2.96-2.813-4.224-4.787-4.224c-1.172,0-2.52,0.444-4.121,1.243c-20.787,10.365-42.553,15.542-64.992,15.542
		c-7.231,0-14.529-0.537-21.892-1.611c-12.7-1.853-24.988-6.6-37.414-10.201c-3.013-0.873-5.991-2.142-8.704-3.714
		c-1.529-0.887-2.799-1.303-3.888-1.303c-2.238,0-3.708,1.758-5.082,4.786c-11.07,24.391-22.354,48.683-33.579,73.002
		c-1.242,2.691-2.577,5.34-5.129,7.929c0-2.188,0.005-4.377-0.001-6.565c-0.11-36.987-0.159-73.976-0.457-110.962
		c-0.023-2.896-1.125-6.27-2.842-8.597c-23.081-31.277-34.017-66.139-30.409-104.97c2.932-31.554,14.941-59.499,35.939-83.416
		c22.721-25.878,50.568-42.851,84.752-48.906C237.535,96.037,246.983,95.223,256.118,95.223 M230.078,332.197
		c0.209,0,0.425-0.006,0.647-0.018c3.25-0.176,6.509-0.228,9.769-0.228c4.732,0,9.469,0.109,14.201,0.109c0,0.074,0,0.149,0,0.224
		c4.94,0,9.885-0.054,14.825-0.054c3.554,0,7.106,0.028,10.657,0.123c0.111,0.003,0.221,0.005,0.328,0.005
		c3.784,0,5.622-1.843,7.072-5.172c5.178-11.897,10.574-23.7,15.892-35.538c20.309-45.219,40.563-90.463,61.011-135.619
		c2.152-4.753,1.166-7.936-2.223-11.505c-29.58-31.171-68.25-46.773-106.981-46.775c-38.345-0.001-76.75,15.288-106.475,45.899
		c-4.119,4.242-5.154,7.955-2.584,13.598c16.892,37.094,33.426,74.35,50.165,111.513c8.677,19.263,17.563,38.432,26.288,57.674
		C224.206,329.821,225.889,332.197,230.078,332.197 M369.436,330.119c12.433-3.796,29.246-46.61,31.175-78.133
		c2.153-35.17-7.322-66.97-28.178-95.098c-0.893,0.204-1.786,0.409-2.679,0.614C368.72,214.901,368.725,272.3,369.436,330.119
		 M138.249,331.777c2.864-9.454,2.93-170.11,0.546-174.501c-11.227,6.452-27.397,48.176-29.368,78.043
		C107.106,270.478,117.539,302.046,138.249,331.777 M154.945,332.764c13.748,0,27.496-0.213,41.243-0.293
		c2.977-0.017,5.955-0.022,8.931-0.022c4.923,0,9.845,0.015,14.768,0.015c0.345-0.647,0.69-1.296,1.036-1.943
		c-23.983-54.933-48.824-109.478-73.976-163.882c-0.723,0.187-1.446,0.374-2.168,0.562c-0.207,3.597-0.586,7.192-0.593,10.79
		c-0.092,49.144-0.134,98.288-0.185,147.433c-0.007,6.997,0.084,7.314,7.222,7.336C152.463,332.762,153.704,332.764,154.945,332.764
		 M288.696,331.91c26.757,0,51.812,0,77.252,0c0.212-2.485,0.511-4.601,0.554-6.72c0.186-8.99,0.453-17.981,0.404-26.972
		c-0.225-41.63-0.531-83.26-0.868-124.89c-0.016-1.95-0.593-3.896-0.909-5.844c-0.66-0.107-1.321-0.216-1.982-0.323
		C338.002,221.466,313.016,275.842,288.696,331.91 M255.188,390.24c1.786,0,3.624-1.341,4.898-3.927
		c4.632-9.395,9.063-18.894,13.353-28.449c2.979-6.635,5.582-13.438,8.881-21.443c-10.04-0.324-19.639-0.63-29.172-0.63
		c-8.324,0-16.598,0.232-25.075,0.891c6.888,18.227,14.016,35.022,23.204,50.865C252.328,389.359,253.741,390.24,255.188,390.24
		 M166.296,336.507c-7.093,0-14.186-0.016-21.279-0.016c-0.173,0.566-0.345,1.133-0.518,1.699c1.415,1.799,2.589,3.873,4.284,5.35
		c8.266,7.202,16.155,14.99,25.13,21.19c20.167,13.933,42.589,22.378,67.21,24.266c0.673,0.052,1.271,0.08,1.797,0.08
		c3.564,0,3.872-1.291,2.117-5.339c-6.348-14.642-12.915-29.188-19.233-43.842c-1.292-2.998-3.144-3.815-6.137-3.815
		c-0.13,0-0.262,0.002-0.396,0.005c-13.146,0.289-26.299,0.333-39.45,0.395C175.313,336.501,170.805,336.507,166.296,336.507
		 M268.426,388.829c31.174,0,89.646-30.587,96.934-51.513c-0.652-0.107-1.267-0.291-1.883-0.298
		c-24.798-0.294-49.596-0.637-74.395-0.696c-0.002,0-0.003,0-0.005,0c-1.529,0-3.762,1.918-4.478,3.485
		c-6.354,13.909-12.461,27.933-18.579,41.949c-0.903,2.069-1.485,4.278-2.347,6.804C265.172,388.741,266.76,388.829,268.426,388.829
		 M145.358,444.021c0.692-0.851,1.598-1.603,2.044-2.566c10.199-21.996,20.346-44.017,30.511-66.028
		c1.194-2.586,0.213-4.131-1.961-5.805c-8.956-6.895-17.721-14.035-26.615-21.01c-1.419-1.113-3.143-1.841-5.025-2.918
		c0,33.217,0,65.571,0,97.925C144.661,443.753,145.009,443.888,145.358,444.021 M363.787,444.086
		c0.551-0.161,1.102-0.321,1.652-0.481c2.646-32.086,1.785-64.197,0.383-97.578c-2.359,1.248-3.615,1.688-4.604,2.47
		c-9.008,7.112-17.908,14.361-26.979,21.391c-2.67,2.069-3.164,3.772-1.668,7.021c9.656,20.977,19.025,42.084,28.545,63.123
		C361.775,441.488,362.887,442.739,363.787,444.086 M256.123,92.223v3l-0.002-3c-9.461,0-19.158,0.869-28.823,2.581
		c-17.086,3.027-33.124,8.876-47.666,17.384c-14.033,8.21-27.093,19.144-38.817,32.497c-21.345,24.312-33.684,52.95-36.672,85.118
		c-3.562,38.333,6.862,74.343,30.982,107.028c1.331,1.804,2.237,4.552,2.256,6.84c0.238,29.635,0.318,59.771,0.396,88.916
		c0.02,7.343,0.039,14.687,0.061,22.03c0.004,1.495,0.003,2.991,0.002,4.486l-0.001,2.07v7.316l5.136-5.21
		c2.889-2.931,4.408-5.943,5.717-8.778c2.428-5.262,4.86-10.521,7.292-15.782c8.661-18.738,17.617-38.114,26.295-57.236
		c0.911-2.008,1.702-3.026,2.35-3.026c0.312,0,1.036,0.117,2.382,0.897c2.898,1.681,6.14,3.063,9.374,4.001
		c3.47,1.006,7.007,2.126,10.427,3.21c8.865,2.809,18.032,5.713,27.389,7.078c7.471,1.09,14.982,1.643,22.325,1.643
		c22.913,0,45.23-5.335,66.331-15.857c1.538-0.767,2.361-0.928,2.782-0.928c0.232,0,0.94,0,2.054,2.461
		c5.761,12.723,11.761,25.584,17.563,38.021c2.963,6.351,5.925,12.701,8.869,19.061c2.467,5.324,4.924,10.769,7.301,16.033
		c1.097,2.431,2.194,4.861,3.297,7.29l0.945,2.084l2.26-0.362l0.751-0.12l0.64-0.104l2.525-0.404v-2.558
		c0-1.791-0.002-3.581-0.003-5.372c-0.004-3.97-0.008-7.939,0.007-11.909c0.03-8.332,0.081-16.664,0.132-24.996
		c0.118-19.502,0.241-39.667,0.088-59.509c-0.095-12.204,2.569-21.362,8.905-30.62c24.133-35.261,31.457-75.032,21.768-118.208
		C389.686,151.115,335.132,92.223,256.123,92.223L256.123,92.223z M230.078,329.197c-2.272,0-3.234-0.822-4.676-4.003
		c-3.803-8.387-7.7-16.897-11.468-25.128c-4.878-10.656-9.923-21.675-14.817-32.539c-6.099-13.539-12.272-27.319-18.242-40.646
		c-10.417-23.25-21.188-47.293-31.928-70.878c-1.948-4.277-1.479-6.675,2.006-10.265c28.173-29.013,65.223-44.99,104.323-44.989
		c39.535,0.002,76.756,16.281,104.806,45.84c2.791,2.941,3.181,4.857,1.666,8.203c-15.965,35.256-32.076,71.155-47.657,105.872
		c-4.452,9.919-8.903,19.837-13.357,29.755c-1.417,3.153-2.839,6.305-4.261,9.455c-3.854,8.54-7.84,17.37-11.646,26.115
		c-1.255,2.882-2.348,3.369-4.321,3.369c-0.081,0-0.163-0.002-0.247-0.004c-3.154-0.084-6.566-0.124-10.738-0.124
		c-2.476,0-4.952,0.014-7.429,0.027c-1.466,0.008-2.932,0.016-4.396,0.021v-0.218h-3c-2.349,0-4.747-0.027-7.066-0.055
		c-2.336-0.027-4.752-0.055-7.135-0.055c-3.847,0-7.002,0.073-9.931,0.231C230.396,329.193,230.235,329.197,230.078,329.197
		L230.078,329.197z M372.371,324.688c-0.67-58.012-0.572-111.225,0.298-162.332c18.562,26.625,26.952,56.695,24.947,89.448
		C395.883,280.125,382.425,314.8,372.371,324.688L372.371,324.688z M136.111,323.158c-17.956-28.244-25.714-56.992-23.691-87.641
		c1.734-26.279,14.342-60.387,24.04-72.127c0.625,11.456,1.117,40.75,1.026,81.017C137.397,283.553,136.803,310.583,136.111,323.158
		L136.111,323.158z M293.271,328.91c23.476-53.971,47.263-105.743,69.777-154.393c0.393,48.617,0.665,87.96,0.858,123.718
		c0.039,7.096-0.124,14.333-0.282,21.332c-0.041,1.854-0.083,3.707-0.121,5.562c-0.024,1.2-0.14,2.409-0.278,3.781H293.271
		L293.271,328.91z M147.156,329.562c-0.159-0.771-0.157-2.618-0.155-4.137l0.021-20.842c0.042-41.49,0.084-84.393,0.164-126.588
		c0.002-1.15,0.044-2.296,0.107-3.457c28.188,61.049,49.903,109.184,69.895,154.924c-1.56-0.002-3.12-0.004-4.679-0.006
		c-2.463-0.004-4.925-0.008-7.389-0.008c-2.982,0-5.966,0.006-8.948,0.022c-5.294,0.03-10.587,0.081-15.881,0.132
		c-8.31,0.079-16.902,0.161-25.345,0.161c-1.238,0-2.475-0.002-3.713-0.006C150.061,329.754,147.989,329.748,147.156,329.562
		L147.156,329.562z M232.316,339.393c6.475-0.404,13.331-0.602,20.832-0.602c8.173,0,16.553,0.23,24.763,0.49
		c-0.469,1.154-0.925,2.286-1.374,3.397c-1.973,4.89-3.837,9.507-5.835,13.957c-4.604,10.254-8.956,19.528-13.306,28.352
		c-0.764,1.548-1.68,2.253-2.208,2.253c-0.384,0-0.888-0.459-1.316-1.198C246.415,373.183,239.886,359.073,232.316,339.393
		L232.316,339.393z M166.296,339.507c4.513,0,9.027-0.006,13.54-0.027l2.645-0.013c12.078-0.055,24.566-0.112,36.857-0.383
		c0.112-0.002,0.222-0.004,0.33-0.004c2.071,0,2.672,0.356,3.382,2.003c3.363,7.8,6.852,15.693,10.225,23.326
		c2.97,6.721,6.041,13.67,9.011,20.521c0.201,0.463,0.351,0.839,0.463,1.145c-0.395-0.006-0.853-0.028-1.395-0.07
		c-23.414-1.795-45.53-9.783-65.735-23.742c-6.438-4.448-12.473-9.885-18.309-15.144c-2.137-1.926-4.347-3.916-6.556-5.841
		c-0.557-0.485-1.075-1.104-1.59-1.785c2.163,0.001,4.326,0.004,6.489,0.006C159.201,339.503,162.749,339.507,166.296,339.507
		L166.296,339.507z M267.715,385.823c0.335-1.03,0.664-1.97,1.055-2.866l0.81-1.854c5.745-13.163,11.687-26.775,17.749-40.049
		c0.284-0.622,1.354-1.555,1.866-1.731c21.098,0.052,42.553,0.313,63.304,0.564l8.25,0.1
		c-11.846,19.321-63.988,45.843-92.322,45.843C268.187,385.829,267.949,385.827,267.715,385.823L267.715,385.823z M147.312,434.517
		v-83.676c0.059,0.044,0.117,0.088,0.173,0.132c3.581,2.808,7.204,5.693,10.708,8.484c5.195,4.137,10.567,8.415,15.928,12.542
		c1.527,1.176,1.448,1.347,1.068,2.17l-7.969,17.264C160.7,405.56,153.984,420.112,147.312,434.517L147.312,434.517z
		 M362.943,436.788c-2.966-6.563-5.918-13.129-8.869-19.695c-6.113-13.599-12.434-27.659-18.777-41.439
		c-0.911-1.98-0.751-2.208,0.781-3.396c5.596-4.336,11.211-8.823,16.641-13.162c3.372-2.695,6.859-5.481,10.303-8.2
		C364.143,378.5,364.922,407.606,362.943,436.788L362.943,436.788z"/>
</g>
</svg>
